<svg width="24" height="24" viewBox="0 0 24 24" fill="none" xmlns="http://www.w3.org/2000/svg">
<path d="M0 12C0 6.34315 0 3.51472 1.75736 1.75736C3.51472 0 6.34315 0 12 0C17.6569 0 20.4853 0 22.2426 1.75736C24 3.51472 24 6.34315 24 12C24 17.6569 24 20.4853 22.2426 22.2426C20.4853 24 17.6569 24 12 24C6.34315 24 3.51472 24 1.75736 22.2426C0 20.4853 0 17.6569 0 12Z" fill="#03C1AA"/>
<circle cx="12" cy="12" r="6.5" stroke="white"/>
<path d="M9.5 12L11.5 14L14.5 9.5" stroke="white" stroke-linecap="round"/>
</svg>
